<?xml version="1.0" encoding="utf-8"?>
<!-- Generator: Adobe Illustrator 22.1.0, SVG Export Plug-In . SVG Version: 6.00 Build 0)  -->
<svg version="1.1" id="Layer_1" xmlns="http://www.w3.org/2000/svg" xmlns:xlink="http://www.w3.org/1999/xlink" x="0px" y="0px"
	 viewBox="0 0 1366 768" style="enable-background:new 0 0 1366 768;" xml:space="preserve">
<style type="text/css">
	.st0{fill:#6DCE9E;}
	.st1{fill:#00BA00;}
	.st2{fill:#666666;}
	.st3{font-family:'AvenirNextCondensed-Regular';}
	.st4{font-size:151.2379px;}
	.st5{font-family:'Arial-BoldMT';}
	.st6{font-size:30px;}
	.st7{font-family:'ArialMT';}
	.st8{font-size:35px;}
	.st9{fill:#68BDF6;}
	.st10{fill:#0000FF;}
	.st11{font-size:186.9883px;}
</style>
<g>
	<circle class="st0" cx="892" cy="324" r="66.5"/>
	<path class="st1" d="M892,259c35.8,0,65,29.2,65,65s-29.2,65-65,65s-65-29.2-65-65S856.2,259,892,259 M892,256
		c-37.6,0-68,30.4-68,68s30.4,68,68,68s68-30.4,68-68S929.6,256,892,256L892,256z"/>
</g>
<text transform="matrix(-0.7054 -5.509486e-03 7.810000e-03 -1 984.9762 285.3508)" class="st2 st3 st4">{</text>
<text transform="matrix(1.0162 0 0 1 1000.0005 307.9473)"><tspan x="0" y="0" class="st5 st6">title</tspan><tspan x="53.3" y="0" class="st7 st6">: ‘The Da Vinci Code’</tspan><tspan x="0" y="36" class="st5 st6">released</tspan><tspan x="121.8" y="36" class="st7 st6">: 2006</tspan><tspan x="0" y="72" class="st5 st6">tagline</tspan><tspan x="96.7" y="72" class="st7 st6">: ‘Break the Codes’</tspan></text>
<text transform="matrix(0.977 0 0 1 830.6249 331.9595)" class="st5 st8">:Movie</text>
<g>
	<circle class="st9" cx="498" cy="239" r="66.5"/>
	<path class="st10" d="M498,174c35.8,0,65,29.2,65,65s-29.2,65-65,65s-65-29.2-65-65S462.2,174,498,174 M498,171
		c-37.6,0-68,30.4-68,68s30.4,68,68,68s68-30.4,68-68S535.6,171,498,171L498,171z"/>
</g>
<text transform="matrix(0.7054 0 0 1 407.0156 271.9062)" class="st2 st3 st4">{</text>
<text transform="matrix(1.0162 0 0 1 19.0005 238.9473)"><tspan x="0" y="0" class="st5 st6">name</tspan><tspan x="78.4" y="0" class="st7 st6">: ‘Jessica Thompson’</tspan></text>
<text transform="matrix(0.977 0 0 1 436.6249 243.9595)" class="st5 st8">:Person</text>
<text transform="matrix(0.9406 0.2641 -0.2703 0.9628 566.1527 250.2212)" class="st5 st8">-[:REVIEWED]-&gt;</text>
<text transform="matrix(1.0162 0 0 1 704.0005 158.9473)"><tspan x="0" y="0" class="st5 st6">summary</tspan><tspan x="133.4" y="0" class="st7 st6">: ‘A solid romp’</tspan><tspan x="0" y="36" class="st5 st6">rating</tspan><tspan x="83.3" y="36" class="st7 st6">: 68</tspan></text>
<g>
	<circle class="st9" cx="498" cy="445" r="66.5"/>
	<path class="st10" d="M498,380c35.8,0,65,29.2,65,65s-29.2,65-65,65s-65-29.2-65-65S462.2,380,498,380 M498,377
		c-37.6,0-68,30.4-68,68s30.4,68,68,68s68-30.4,68-68S535.6,377,498,377L498,377z"/>
</g>
<text transform="matrix(0.7054 0 0 1 407.0156 482.9062)" class="st2 st3 st4">{</text>
<text transform="matrix(1.0162 0 0 1 41.0005 444.9473)"><tspan x="0" y="0" class="st5 st6">name</tspan><tspan x="78.4" y="0" class="st7 st6">: JamesThompson’</tspan></text>
<text transform="matrix(0.977 0 0 1 436.6249 454.9595)" class="st5 st8">:Person</text>
<text transform="matrix(0.9361 -0.2795 0.2861 0.9582 575.4343 438.3213)" class="st5 st8">-[:REVIEWED]-&gt;</text>
<text transform="matrix(1.0162 0 0 1 723.0005 465.9473)"><tspan x="0" y="0" class="st5 st6">summary</tspan><tspan x="133.4" y="0" class="st7 st6">: ‘Fun, but a little far fetched’</tspan><tspan x="0" y="36" class="st5 st6">rating</tspan><tspan x="83.3" y="36" class="st7 st6">: 65</tspan></text>
<text transform="matrix(-0.227 0.79 -0.9611 -0.2762 655.635 185.8275)" class="st2 st3 st11">{</text>
<text transform="matrix(-0.2661 -0.7777 0.9461 -0.3238 759.5427 424.4985)" class="st2 st3 st11">{</text>
</svg>
