<svg xmlns="http://www.w3.org/2000/svg" class="graphdiagram" viewBox="-681.7590026855469 -403.56469544814695 1168 853"><g class="layer relationships"><g class="related-pair"><g class="relationship" transform="translate(-240.00000000000003,-27) rotate(-19.155612445439672)"><path class="relationship" d="M 33.25547665195899 1 L 260.44967743063205 1 L 260.44967743063205 4 L 268.44967743063205 0 L 260.44967743063205 -4 L 260.44967743063205 -1 L 33.25547665195899 -1 Z" fill="rgba(0, 0, 0, 0.3)" stroke="rgb(51, 51, 51)" stroke-width="0px"/><text class="type" text-anchor="middle" baseline-shift="30%" alignment-baseline="alphabetic" x="146.85257704129552" y="0" font-size="14px" font-family="&quot;Helvetica Neue&quot;, Helvetica, Arial, sans-serif">CONNECTED_TO</text></g></g><g class="related-pair"><g class="relationship" transform="translate(-240.00000000000003,-27) rotate(31.11134966133785)"><path class="relationship" d="M 33.25547665195899 1 L 291.62438155517253 1 L 291.62438155517253 4 L 299.62438155517253 0 L 291.62438155517253 -4 L 291.62438155517253 -1 L 33.25547665195899 -1 Z" fill="rgba(0, 0, 0, 0.3)" stroke="rgb(51, 51, 51)" stroke-width="0px"/><text class="type" text-anchor="middle" baseline-shift="30%" alignment-baseline="alphabetic" x="162.43992910356576" y="0" font-size="14px" font-family="&quot;Helvetica Neue&quot;, Helvetica, Arial, sans-serif">CONNECTED_TO</text></g></g></g><g class="layer nodes"><circle class="node node-id-0" r="27.755476651958993" fill="rgb(247, 247, 249)" stroke="rgba(0, 0, 0, 0.3)" stroke-width="1px" cx="-240.00000000000003" cy="-27"/><g class="caption"><text class="caption node" text-anchor="middle" alignment-baseline="central" x="-240.00000000000003" y="-27" fill="rgb(51, 51, 51)" font-size="14px" font-family="&quot;Helvetica Neue&quot;, Helvetica, Arial, sans-serif">Airport</text></g><circle class="node node-id-1" r="27.755476651958993" fill="rgb(247, 247, 249)" stroke="rgba(0, 0, 0, 0.3)" stroke-width="1px" cx="44.99999999999997" cy="-126.00000000000003"/><g class="caption"><text class="caption node" text-anchor="middle" alignment-baseline="central" x="44.99999999999997" y="-126.00000000000003" fill="rgb(51, 51, 51)" font-size="14px" font-family="&quot;Helvetica Neue&quot;, Helvetica, Arial, sans-serif">Airport</text></g><circle class="node node-id-3" r="27.755476651958993" fill="rgb(247, 247, 249)" stroke="rgba(0, 0, 0, 0.3)" stroke-width="1px" cx="44.99999999999997" cy="145"/><g class="caption"><text class="caption node" text-anchor="middle" alignment-baseline="central" x="44.99999999999997" y="145" fill="rgb(51, 51, 51)" font-size="14px" font-family="&quot;Helvetica Neue&quot;, Helvetica, Arial, sans-serif">Airport</text></g></g><g class="layer properties"><g class="speech-bubble node-speech-bubble" transform="translate(-267.75547665195904,-27) "><path class="speech-bubble-outline" transform="scale(-1,1) " d="M 0 0 L 12 -4 L 12 -7 A 4 4 0 0 1 16 -11 L 88.86993408203125 -11 A 4 4 0 0 1 92.86993408203125 -7 L 92.86993408203125 7 A 4 4 0 0 1 88.86993408203125 11 L 16 11 A 4 4 0 0 1 12 7 L 12 4 Z" fill="rgb(255, 255, 255)" stroke="rgba(0, 0, 0, 0.5)" stroke-width="1px"/><text class="speech-bubble-content property-key" x="-49.71197509765625" y="0" alignment-baseline="central" text-anchor="end" font-size="14px" font-family="&quot;Helvetica Neue&quot;, Helvetica, Arial, sans-serif" xml:space="preserve">code: </text><text class="speech-bubble-content property-value" x="-49.71197509765625" y="0" alignment-baseline="central" font-size="14px" font-family="&quot;Helvetica Neue&quot;, Helvetica, Arial, sans-serif">'LAS'</text></g><g class="speech-bubble node-speech-bubble" transform="translate(72.75547665195896,-126.00000000000003) "><path class="speech-bubble-outline" transform="scale(1,1) " d="M 0 0 L 12 -4 L 12 -7 A 4 4 0 0 1 16 -11 L 88.3519287109375 -11 A 4 4 0 0 1 92.3519287109375 -7 L 92.3519287109375 7 A 4 4 0 0 1 88.3519287109375 11 L 16 11 A 4 4 0 0 1 12 7 L 12 4 Z" fill="rgb(255, 255, 255)" stroke="rgba(0, 0, 0, 0.5)" stroke-width="1px"/><text class="speech-bubble-content property-key" x="55.157958984375" y="0" alignment-baseline="central" text-anchor="end" font-size="14px" font-family="&quot;Helvetica Neue&quot;, Helvetica, Arial, sans-serif" xml:space="preserve">code: </text><text class="speech-bubble-content property-value" x="55.157958984375" y="0" alignment-baseline="central" font-size="14px" font-family="&quot;Helvetica Neue&quot;, Helvetica, Arial, sans-serif">'LAX'</text></g><g class="speech-bubble relationship-speech-bubble" transform="translate(-101.2785234510377,-75.18746027490272) "><path class="speech-bubble-outline" transform="scale(1,1) " d="M 0 0 L 16 12 L 170.0698699951172 12 A 4 4 0 0 1 174.0698699951172 16 L 174.0698699951172 86 A 4 4 0 0 1 170.0698699951172 90 L 16 90 A 4 4 0 0 1 12 86 L 12 16 Z" fill="rgb(255, 255, 255)" stroke="rgba(0, 0, 0, 0.5)" stroke-width="1px"/><text class="speech-bubble-content property-key" x="104.68989562988281" y="23" alignment-baseline="central" text-anchor="end" font-size="14px" font-family="&quot;Helvetica Neue&quot;, Helvetica, Arial, sans-serif" xml:space="preserve">airline: </text><text class="speech-bubble-content property-key" x="104.68989562988281" y="37" alignment-baseline="central" text-anchor="end" font-size="14px" font-family="&quot;Helvetica Neue&quot;, Helvetica, Arial, sans-serif" xml:space="preserve">flightNumber: </text><text class="speech-bubble-content property-key" x="104.68989562988281" y="51" alignment-baseline="central" text-anchor="end" font-size="14px" font-family="&quot;Helvetica Neue&quot;, Helvetica, Arial, sans-serif" xml:space="preserve">date: </text><text class="speech-bubble-content property-key" x="104.68989562988281" y="65" alignment-baseline="central" text-anchor="end" font-size="14px" font-family="&quot;Helvetica Neue&quot;, Helvetica, Arial, sans-serif" xml:space="preserve">departure: </text><text class="speech-bubble-content property-key" x="104.68989562988281" y="79" alignment-baseline="central" text-anchor="end" font-size="14px" font-family="&quot;Helvetica Neue&quot;, Helvetica, Arial, sans-serif" xml:space="preserve">arrival: </text><text class="speech-bubble-content property-value" x="104.68989562988281" y="23" alignment-baseline="central" font-size="14px" font-family="&quot;Helvetica Neue&quot;, Helvetica, Arial, sans-serif">'WN'</text><text class="speech-bubble-content property-value" x="104.68989562988281" y="37" alignment-baseline="central" font-size="14px" font-family="&quot;Helvetica Neue&quot;, Helvetica, Arial, sans-serif">'82'</text><text class="speech-bubble-content property-value" x="104.68989562988281" y="51" alignment-baseline="central" font-size="14px" font-family="&quot;Helvetica Neue&quot;, Helvetica, Arial, sans-serif">'2019-1-3'</text><text class="speech-bubble-content property-value" x="104.68989562988281" y="65" alignment-baseline="central" font-size="14px" font-family="&quot;Helvetica Neue&quot;, Helvetica, Arial, sans-serif">1715</text><text class="speech-bubble-content property-value" x="104.68989562988281" y="79" alignment-baseline="central" font-size="14px" font-family="&quot;Helvetica Neue&quot;, Helvetica, Arial, sans-serif">1820</text></g><g class="speech-bubble node-speech-bubble" transform="translate(64.62608575566507,164.6260857556651) "><path class="speech-bubble-outline" transform="scale(1,1) " d="M 0 0 L 16 12 L 92.24394226074219 12 A 4 4 0 0 1 96.24394226074219 16 L 96.24394226074219 30 A 4 4 0 0 1 92.24394226074219 34 L 16 34 A 4 4 0 0 1 12 30 L 12 16 Z" fill="rgb(255, 255, 255)" stroke="rgba(0, 0, 0, 0.5)" stroke-width="1px"/><text class="speech-bubble-content property-key" x="55.157958984375" y="23" alignment-baseline="central" text-anchor="end" font-size="14px" font-family="&quot;Helvetica Neue&quot;, Helvetica, Arial, sans-serif" xml:space="preserve">code: </text><text class="speech-bubble-content property-value" x="55.157958984375" y="23" alignment-baseline="central" font-size="14px" font-family="&quot;Helvetica Neue&quot;, Helvetica, Arial, sans-serif">'ABQ'</text></g><g class="speech-bubble relationship-speech-bubble" transform="translate(-100.92465899300717,56.93318825685182) "><path class="speech-bubble-outline" transform="scale(-1,1) " d="M 0 0 L 16 12 L 170.0698699951172 12 A 4 4 0 0 1 174.0698699951172 16 L 174.0698699951172 86 A 4 4 0 0 1 170.0698699951172 90 L 16 90 A 4 4 0 0 1 12 86 L 12 16 Z" fill="rgb(255, 255, 255)" stroke="rgba(0, 0, 0, 0.5)" stroke-width="1px"/><text class="speech-bubble-content property-key" x="-81.37997436523438" y="23" alignment-baseline="central" text-anchor="end" font-size="14px" font-family="&quot;Helvetica Neue&quot;, Helvetica, Arial, sans-serif" xml:space="preserve">airline: </text><text class="speech-bubble-content property-key" x="-81.37997436523438" y="37" alignment-baseline="central" text-anchor="end" font-size="14px" font-family="&quot;Helvetica Neue&quot;, Helvetica, Arial, sans-serif" xml:space="preserve">flightNumber: </text><text class="speech-bubble-content property-key" x="-81.37997436523438" y="51" alignment-baseline="central" text-anchor="end" font-size="14px" font-family="&quot;Helvetica Neue&quot;, Helvetica, Arial, sans-serif" xml:space="preserve">date: </text><text class="speech-bubble-content property-key" x="-81.37997436523438" y="65" alignment-baseline="central" text-anchor="end" font-size="14px" font-family="&quot;Helvetica Neue&quot;, Helvetica, Arial, sans-serif" xml:space="preserve">departure: </text><text class="speech-bubble-content property-key" x="-81.37997436523438" y="79" alignment-baseline="central" text-anchor="end" font-size="14px" font-family="&quot;Helvetica Neue&quot;, Helvetica, Arial, sans-serif" xml:space="preserve">arrival: </text><text class="speech-bubble-content property-value" x="-81.37997436523438" y="23" alignment-baseline="central" font-size="14px" font-family="&quot;Helvetica Neue&quot;, Helvetica, Arial, sans-serif">'WN'</text><text class="speech-bubble-content property-value" x="-81.37997436523438" y="37" alignment-baseline="central" font-size="14px" font-family="&quot;Helvetica Neue&quot;, Helvetica, Arial, sans-serif">'500'</text><text class="speech-bubble-content property-value" x="-81.37997436523438" y="51" alignment-baseline="central" font-size="14px" font-family="&quot;Helvetica Neue&quot;, Helvetica, Arial, sans-serif">'2019-1-3'</text><text class="speech-bubble-content property-value" x="-81.37997436523438" y="65" alignment-baseline="central" font-size="14px" font-family="&quot;Helvetica Neue&quot;, Helvetica, Arial, sans-serif">1445</text><text class="speech-bubble-content property-value" x="-81.37997436523438" y="79" alignment-baseline="central" font-size="14px" font-family="&quot;Helvetica Neue&quot;, Helvetica, Arial, sans-serif">1710</text></g></g><g class="layer overlay"><circle class="node overlay" r="28.255476651958993" stroke="none" fill="rgba(255, 255, 255, 0)" cx="-240.00000000000003" cy="-27"/><circle class="node ring" r="33.25547665195899" fill="none" stroke="rgba(255, 255, 255, 0)" stroke-width="10px" cx="-240.00000000000003" cy="-27"/><circle class="node overlay" r="28.255476651958993" stroke="none" fill="rgba(255, 255, 255, 0)" cx="44.99999999999997" cy="-126.00000000000003"/><circle class="node ring" r="33.25547665195899" fill="none" stroke="rgba(255, 255, 255, 0)" stroke-width="10px" cx="44.99999999999997" cy="-126.00000000000003"/><path class="relationship overlay" fill="rgba(255, 255, 255, 0)" stroke="rgba(255, 255, 255, 0)" stroke-width="10px" transform="translate(-240.00000000000003,-27) rotate(-19.155612445439672)" d="M 33.25547665195899 1 L 260.44967743063205 1 L 260.44967743063205 4 L 268.44967743063205 0 L 260.44967743063205 -4 L 260.44967743063205 -1 L 33.25547665195899 -1 Z"/><circle class="node overlay" r="28.255476651958993" stroke="none" fill="rgba(255, 255, 255, 0)" cx="44.99999999999997" cy="145"/><circle class="node ring" r="33.25547665195899" fill="none" stroke="rgba(255, 255, 255, 0)" stroke-width="10px" cx="44.99999999999997" cy="145"/><path class="relationship overlay" fill="rgba(255, 255, 255, 0)" stroke="rgba(255, 255, 255, 0)" stroke-width="10px" transform="translate(-240.00000000000003,-27) rotate(31.11134966133785)" d="M 33.25547665195899 1 L 291.62438155517253 1 L 291.62438155517253 4 L 299.62438155517253 0 L 291.62438155517253 -4 L 291.62438155517253 -1 L 33.25547665195899 -1 Z"/></g></svg>