<svg xmlns="http://www.w3.org/2000/svg" width="604.9443359375" height="485.7412414550781" viewBox="-241.341796875 -118.22647094726562 604.9443359375 485.7412414550781"><title>Neo4j Graph Visualization</title><desc>Created using Neo4j (http://www.neo4j.com/)</desc><g class="layer relationships"><g class="relationship" transform="translate(316.64914865786375 62.51298862736747) rotate(539.9559074787949)"><path class="outline" fill="#A5ABB6" stroke="none" d="M 40 0.5 L 77.72865479052133 0.5 L 77.72865479052133 -0.5 L 40 -0.5 Z M 120.62318604052133 0.5 L 158.35184083104267 0.5 L 158.35184083104267 3.5 L 165.35184083104267 0 L 158.35184083104267 -3.5 L 158.35184083104267 -0.5 L 120.62318604052133 -0.5 Z"/><text text-anchor="middle" pointer-events="none" font-size="8px" fill="#000000" x="99.17592041552133" y="3" transform="rotate(180 99.17592041552133 0)" font-family="sans-serif">REVIEWS</text></g><g class="relationship" transform="translate(-188.72538739506513 70.61566568877652) rotate(452.9630476548068)"><path class="outline" fill="#A5ABB6" stroke="none" d="M 40 0.5 L 50.91417747727817 0.5 L 50.91417747727817 -0.5 L 40 -0.5 Z M 108.77355247727817 0.5 L 119.68772995455635 0.5 L 119.68772995455635 3.5 L 126.68772995455635 0 L 119.68772995455635 -3.5 L 119.68772995455635 -0.5 L 108.77355247727817 -0.5 Z"/><text text-anchor="middle" pointer-events="none" font-size="8px" fill="#000000" x="79.84386497727817" y="3" transform="rotate(180 79.84386497727817 0)" font-family="sans-serif">IN_COUNTRY</text></g><g class="relationship" transform="translate(319.60255964582825 248.23612954219035) rotate(359.0889464709714)"><path class="outline" fill="#A5ABB6" stroke="none" d="M 10.835724717245366 38.50762352901147 L 21.188486521346196 77.14465658057419 A 21.935935394489817 21.935935394489817 0 1 1 -21.188486521346196 77.14465658057419 L -12.647458032963009 45.26910431303495 L -8.783754727806736 46.30438049344503 L -10.352761804100831 38.63703305156273 L -15.545235511830214 44.49264717772739 L -11.68153220667394 45.52792335813747 L -20.22256069505713 77.40347562567672 A 20.935935394489817 20.935935394489817 0 1 0 20.22256069505713 77.40347562567672 L 9.869798890956297 38.76644257411399 Z"/><text text-anchor="middle" pointer-events="none" font-size="8px" fill="#000000" x="0" y="113.75802982729645" font-family="sans-serif">FRIENDS</text></g><g class="relationship" transform="translate(319.60255964582825 248.23612954219035) rotate(269.0889464709714)"><path class="outline" fill="#A5ABB6" stroke="none" d="M 40 0.5 L 71.48659241597893 0.5 L 71.48659241597893 -0.5 L 40 -0.5 Z M 107.26002991597893 0.5 L 138.74662233195787 0.5 L 138.74662233195787 3.5 L 145.74662233195787 0 L 138.74662233195787 -3.5 L 138.74662233195787 -0.5 L 107.26002991597893 -0.5 Z"/><text text-anchor="middle" pointer-events="none" font-size="8px" fill="#000000" x="89.37331116597893" y="3" transform="rotate(180 89.37331116597893 0)" font-family="sans-serif">WROTE</text></g><g class="relationship" transform="translate(111.2973686337659 62.671019106743145) rotate(450.0298820881386)"><path class="outline" fill="#A5ABB6" stroke="none" d="M 40 0.5 L 52.43235357312858 0.5 L 52.43235357312858 -0.5 L 40 -0.5 Z M 115.03782232312858 0.5 L 127.47017589625716 0.5 L 127.47017589625716 3.5 L 134.47017589625716 0 L 127.47017589625716 -3.5 L 127.47017589625716 -0.5 L 115.03782232312858 -0.5 Z"/><text text-anchor="middle" pointer-events="none" font-size="8px" fill="#000000" x="83.73508794812858" y="3" transform="rotate(180 83.73508794812858 0)" font-family="sans-serif">IN_CATEGORY</text></g><g class="relationship" transform="translate(-15.651056044470753 -74.22647037034277) rotate(500.0747716846111)"><path class="outline" fill="#A5ABB6" stroke="none" d="M 40 0.5 L 89.22558868729494 0.5 L 89.22558868729494 -0.5 L 40 -0.5 Z M 129.45996368729493 0.5 L 178.6855523745899 0.5 L 178.6855523745899 3.5 L 185.6855523745899 0 L 178.6855523745899 -3.5 L 178.6855523745899 -0.5 L 129.45996368729493 -0.5 Z"/><text text-anchor="middle" pointer-events="none" font-size="8px" fill="#000000" x="109.34277618729494" y="3" transform="rotate(180 109.34277618729494 0)" font-family="sans-serif">IN_AREA</text></g><g class="relationship" transform="translate(111.2973686337659 62.671019106743145) rotate(227.15947811343796)"><path class="outline" fill="#A5ABB6" stroke="none" d="M 40 0.5 L 71.51397566736021 0.5 L 71.51397566736021 -0.5 L 40 -0.5 Z M 108.18585066736021 0.5 L 139.69982633472043 0.5 L 139.69982633472043 3.5 L 146.69982633472043 0 L 139.69982633472043 -3.5 L 139.69982633472043 -0.5 L 108.18585066736021 -0.5 Z"/><text text-anchor="middle" pointer-events="none" font-size="8px" fill="#000000" x="89.84991316736021" y="3" transform="rotate(180 89.84991316736021 0)" font-family="sans-serif">IN_CITY</text></g></g><g class="layer nodes"><g class="node" transform="translate(-188.72538739506513,70.61566568877652)"><circle class="outline" cx="0" cy="0" r="40" fill="#FFD86E" stroke="#EDBA39" stroke-width="2px"/><text text-anchor="middle" pointer-events="none" font-family="sans-serif" dy="2.5" font-size="40" fill="#604A0E"/><text text-anchor="middle" pointer-events="none" y="5" font-size="10px" fill="#604A0E" font-family="sans-serif"> Area</text></g><g class="node" transform="translate(111.20637531834802,237.14117127463533)"><circle class="outline" cx="0" cy="0" r="40" fill="#68BDF6" stroke="#5CA8DB" stroke-width="2px"/><text text-anchor="middle" pointer-events="none" font-family="sans-serif" dy="2.5" font-size="40" fill="#FFFFFF"/><text text-anchor="middle" pointer-events="none" y="5" font-size="10px" fill="#FFFFFF" font-family="sans-serif"> Category</text></g><g class="node" transform="translate(319.60255964582825,248.23612954219035)"><circle class="outline" cx="0" cy="0" r="40" fill="#6DCE9E" stroke="#60B58B" stroke-width="2px"/><text text-anchor="middle" pointer-events="none" font-family="sans-serif" dy="2.5" font-size="40" fill="#FFFFFF"/><text text-anchor="middle" pointer-events="none" y="5" font-size="10px" fill="#FFFFFF" font-family="sans-serif"> User</text></g><g class="node" transform="translate(-197.34179105972626,237.08054758670332)"><circle class="outline" cx="0" cy="0" r="40" fill="#A5ABB6" stroke="#9AA1AC" stroke-width="2px"/><text text-anchor="middle" pointer-events="none" font-family="sans-serif" dy="2.5" font-size="40" fill="#FFFFFF"/><text text-anchor="middle" pointer-events="none" y="5" font-size="10px" fill="#FFFFFF" font-family="sans-serif"> Country</text></g><g class="node" transform="translate(316.64914865786375,62.51298862736747)"><circle class="outline" cx="0" cy="0" r="40" fill="#FB95AF" stroke="#E0849B" stroke-width="2px"/><text text-anchor="middle" pointer-events="none" font-family="sans-serif" dy="2.5" font-size="40" fill="#FFFFFF"/><text text-anchor="middle" pointer-events="none" y="5" font-size="10px" fill="#FFFFFF" font-family="sans-serif"> Review</text></g><g class="node" transform="translate(-15.651056044470753,-74.22647037034277)"><circle class="outline" cx="0" cy="0" r="40" fill="#DE9BF9" stroke="#BF85D6" stroke-width="2px"/><text text-anchor="middle" pointer-events="none" font-family="sans-serif" dy="2.5" font-size="40" fill="#FFFFFF"/><text text-anchor="middle" pointer-events="none" y="5" font-size="10px" fill="#FFFFFF" font-family="sans-serif"> City</text></g><g class="node" transform="translate(111.2973686337659,62.671019106743145)"><circle class="outline" cx="0" cy="0" r="40" fill="#A5ABB6" stroke="#9AA1AC" stroke-width="2px"/><text text-anchor="middle" pointer-events="none" font-family="sans-serif" dy="2.5" font-size="40" fill="#FFFFFF"/><text text-anchor="middle" pointer-events="none" y="5" font-size="10px" fill="#FFFFFF" font-family="sans-serif"> Business</text></g></g></svg>